<?xml version="1.0" standalone="no"?>
<!DOCTYPE svg PUBLIC "-//W3C//DTD SVG 20010904//EN"
 "http://www.w3.org/TR/2001/REC-SVG-20010904/DTD/svg10.dtd">
<svg version="1.0" xmlns="http://www.w3.org/2000/svg"
 width="700.000000pt" height="700.000000pt" viewBox="0 0 700.000000 700.000000"
 preserveAspectRatio="xMidYMid meet">
<metadata>
Created by potrace 1.14, written by Peter Selinger 2001-2017
</metadata>
<g transform="translate(0.000000,700.000000) scale(0.100000,-0.100000)"
fill="#000000" stroke="none">
<path d="M3278 6995 c-1 -1 -42 -5 -89 -9 -47 -4 -95 -8 -105 -10 -10 -2 -41
-7 -69 -10 -93 -12 -130 -18 -135 -21 -3 -2 -24 -6 -46 -9 -58 -9 -66 -11
-203 -46 -384 -97 -776 -275 -1111 -504 -41 -28 -77 -53 -80 -56 -3 -3 -43
-34 -90 -70 -90 -69 -111 -86 -198 -165 -265 -241 -515 -551 -691 -855 -37
-66 -181 -354 -181 -365 0 -4 -7 -21 -15 -38 -114 -248 -221 -681 -252 -1022
-10 -103 -10 -529 0 -620 4 -38 9 -95 12 -125 17 -165 89 -484 156 -683 77
-229 208 -512 322 -695 29 -45 57 -90 62 -100 24 -43 133 -192 208 -285 163
-202 344 -382 557 -552 92 -74 370 -265 386 -265 4 0 15 -6 23 -14 26 -22 260
-140 387 -194 283 -121 593 -208 883 -248 25 -3 57 -8 71 -10 162 -25 682 -25
841 1 13 2 43 6 66 9 22 3 52 7 65 10 12 3 39 8 58 10 184 26 459 105 694 198
484 192 964 529 1305 917 31 35 64 72 74 83 9 10 60 75 112 143 359 477 599
1061 674 1650 33 253 36 656 6 865 -3 19 -7 55 -10 80 -3 25 -7 52 -10 60 -2
8 -7 35 -10 60 -7 55 -53 265 -64 300 -5 14 -17 52 -26 85 -177 626 -592 1259
-1100 1680 -33 28 -62 53 -65 56 -4 5 -138 102 -270 196 -110 79 -423 244
-600 316 -215 88 -570 187 -760 212 -19 3 -46 7 -60 10 -13 2 -52 7 -86 11
-33 3 -74 8 -90 10 -33 5 -540 14 -546 9z"/>
</g>
</svg>
